<?xml version="1.0" standalone="no"?>
<!DOCTYPE svg PUBLIC "-//W3C//DTD SVG 20010904//EN"
 "http://www.w3.org/TR/2001/REC-SVG-20010904/DTD/svg10.dtd">
<svg version="1.0" xmlns="http://www.w3.org/2000/svg"
 width="97.000000pt" height="85.000000pt" viewBox="0 0 97.000000 85.000000"
 preserveAspectRatio="xMidYMid meet">
<metadata>
Created by potrace 1.11, written by Peter Selinger 2001-2013
</metadata>
<g transform="translate(0.000000,85.000000) scale(0.100000,-0.100000)"
fill="#000000" stroke="none">
<path d="M336 756 c-29 -50 -117 -201 -195 -336 -160 -275 -151 -238 -81 -353
l35 -57 390 0 390 0 35 63 c19 34 40 71 45 82 9 17 -3 44 -74 165 -46 80 -130
225 -186 322 -56 98 -107 184 -114 191 -8 11 -36 14 -102 14 l-90 0 -53 -91z"/>
</g>
</svg>
